<svg xmlns="http://www.w3.org/2000/svg" xmlns:xlink="http://www.w3.org/1999/xlink" width="506" zoomAndPan="magnify" viewBox="0 0 379.5 380.999991" height="508" preserveAspectRatio="xMidYMid meet" version="1.0"><defs><g/><clipPath id="152daaabb1"><path d="M 1.921875 3.222656 L 376.429688 3.222656 L 376.429688 377.726562 L 1.921875 377.726562 Z M 1.921875 3.222656 " clip-rule="nonzero"/></clipPath><clipPath id="9ae3770641"><path d="M 0 94.648438 L 378.671875 94.648438 L 378.671875 286.304688 L 0 286.304688 Z M 0 94.648438 " clip-rule="nonzero"/></clipPath><clipPath id="d62769539e"><path d="M 0 0.648438 L 378.671875 0.648438 L 378.671875 192.304688 L 0 192.304688 Z M 0 0.648438 " clip-rule="nonzero"/></clipPath><clipPath id="c664a4f1df"><rect x="0" width="379" y="0" height="193"/></clipPath></defs><g clip-path="url(#152daaabb1)"><path stroke-linecap="butt" transform="matrix(0.749013, 0, 0, 0.749013, 1.921573, 3.221802)" fill="none" stroke-linejoin="miter" d="M 0.000403236 0.00114076 L 500.002103 0.00114076 L 500.002103 499.997625 L 0.000403236 499.997625 Z M 0.000403236 0.00114076 " stroke="#000000" stroke-width="80" stroke-opacity="1" stroke-miterlimit="4"/></g><g clip-path="url(#9ae3770641)"><g transform="matrix(1, 0, 0, 1, -0, 94)"><g clip-path="url(#c664a4f1df)"><g clip-path="url(#d62769539e)"><path fill="#ffffff" d="M 0 0.648438 L 378.820312 0.648438 L 378.820312 192.304688 L 0 192.304688 Z M 0 0.648438 " fill-opacity="1" fill-rule="nonzero"/></g></g></g></g><g fill="#000000" fill-opacity="1"><g transform="translate(75.995896, 260.507812)"><g><path d="M 53.925781 10.6875 C 43.082031 10.6875 33.273438 8.324219 24.507812 3.597656 C 15.757812 -1.121094 8.574219 -7.691406 2.957031 -16.117188 C -2.605469 -24.460938 -6.128906 -33.988281 -7.617188 -44.707031 L -8.800781 -53.230469 L 31.886719 -53.230469 L 33.253906 -47.464844 C 34.222656 -43.367188 35.785156 -39.824219 37.9375 -36.832031 C 39.992188 -33.976562 42.4375 -31.792969 45.273438 -30.273438 C 48.03125 -28.800781 51.25 -28.0625 54.925781 -28.0625 C 59.207031 -28.0625 62.996094 -29.109375 66.300781 -31.195312 C 69.679688 -33.332031 72.320312 -36.257812 74.226562 -39.972656 C 76.207031 -43.824219 77.195312 -48.210938 77.195312 -53.128906 L 77.195312 -147.300781 L 117.34375 -147.300781 L 117.34375 -54.128906 C 117.34375 -45.042969 115.765625 -36.558594 112.613281 -28.675781 C 109.449219 -20.765625 104.988281 -13.859375 99.238281 -7.957031 C 93.472656 -2.039062 86.730469 2.546875 79.007812 5.804688 C 71.285156 9.058594 62.925781 10.6875 53.925781 10.6875 Z M 53.925781 -4.292969 C 60.90625 -4.292969 67.328125 -5.53125 73.1875 -8 C 79.046875 -10.46875 84.15625 -13.941406 88.507812 -18.410156 C 92.878906 -22.890625 96.277344 -28.167969 98.703125 -34.238281 C 101.144531 -40.335938 102.363281 -46.964844 102.363281 -54.128906 L 102.363281 -139.8125 L 109.851562 -139.8125 L 109.851562 -132.320312 L 84.6875 -132.320312 L 84.6875 -139.8125 L 92.175781 -139.8125 L 92.175781 -53.128906 C 92.175781 -45.796875 90.636719 -39.128906 87.554688 -33.128906 C 84.402344 -26.992188 79.988281 -22.125 74.308594 -18.535156 C 68.558594 -14.898438 62.097656 -13.082031 54.925781 -13.082031 C 48.75 -13.082031 43.179688 -14.410156 38.214844 -17.0625 C 33.328125 -19.671875 29.183594 -23.347656 25.777344 -28.082031 C 22.46875 -32.679688 20.101562 -37.992188 18.675781 -44.011719 L 25.964844 -45.738281 L 25.964844 -38.25 L -0.199219 -38.25 L -0.199219 -45.738281 L 7.21875 -46.769531 C 8.394531 -38.3125 11.128906 -30.867188 15.417969 -24.425781 C 19.65625 -18.074219 25.054688 -13.125 31.617188 -9.589844 C 38.164062 -6.058594 45.601562 -4.292969 53.925781 -4.292969 Z M 53.925781 -4.292969 "/></g></g></g><g fill="#000000" fill-opacity="1"><g transform="translate(170.867536, 260.507812)"><g><path d="M 46.332031 2.679688 L -11.085938 -147.300781 L 32.300781 -147.300781 L 81.414062 -5.09375 L 50.976562 -5.09375 L 100.535156 -147.300781 L 143.710938 -147.300781 L 84.445312 7.488281 L 48.175781 7.488281 Z M 60.324219 -2.679688 L 53.328125 0 L 53.328125 -7.488281 L 79.292969 -7.488281 L 79.292969 0 L 72.296875 -2.679688 L 125.828125 -142.492188 L 132.820312 -139.8125 L 132.820312 -132.320312 L 105.859375 -132.320312 L 105.859375 -139.8125 L 112.929688 -137.347656 L 68.589844 -10.117188 L 61.515625 -12.582031 L 61.515625 -20.074219 L 70.90625 -20.074219 L 70.90625 -12.582031 L 63.824219 -10.136719 L 19.882812 -137.367188 L 26.964844 -139.8125 L 26.964844 -132.320312 L -0.199219 -132.320312 L -0.199219 -139.8125 L 6.796875 -142.492188 Z M 60.324219 -2.679688 "/></g></g></g><g fill="#000000" fill-opacity="1"><g transform="translate(75.995896, 260.507812)"><g><path d="M 53.921875 3.203125 C 44.335938 3.203125 35.71875 1.136719 28.0625 -2.984375 C 20.40625 -7.117188 14.113281 -12.878906 9.1875 -20.265625 C 4.257812 -27.660156 1.128906 -36.148438 -0.203125 -45.734375 L 25.96875 -45.734375 C 27.164062 -40.679688 29.128906 -36.253906 31.859375 -32.453125 C 34.585938 -28.660156 37.878906 -25.734375 41.734375 -23.671875 C 45.597656 -21.609375 49.992188 -20.578125 54.921875 -20.578125 C 60.648438 -20.578125 65.773438 -22.003906 70.296875 -24.859375 C 74.828125 -27.722656 78.359375 -31.617188 80.890625 -36.546875 C 83.421875 -41.472656 84.6875 -47 84.6875 -53.125 L 84.6875 -139.8125 L 109.859375 -139.8125 L 109.859375 -54.125 C 109.859375 -46 108.457031 -38.441406 105.65625 -31.453125 C 102.863281 -24.460938 98.9375 -18.367188 93.875 -13.171875 C 88.8125 -7.984375 82.882812 -3.957031 76.09375 -1.09375 C 69.300781 1.769531 61.910156 3.203125 53.921875 3.203125 Z M 53.921875 3.203125 "/></g></g></g><g fill="#000000" fill-opacity="1"><g transform="translate(170.867536, 260.507812)"><g><path d="M 53.328125 0 L -0.203125 -139.8125 L 26.96875 -139.8125 L 70.90625 -12.578125 L 61.515625 -12.578125 L 105.859375 -139.8125 L 132.828125 -139.8125 L 79.296875 0 Z M 53.328125 0 "/></g></g></g></svg>